PathFileType	4	(X/Y/Z)	E:\Qualisys_Data\Carbon_Farble_Plate\Data\Amateur_Runner\S14\T2\S14T2V21_c3d.trc
DataRate	CameraRate	NumFrames	NumMarkers	Units	OrigDataRate	OrigDataStartFrame	OrigNumFrames
200.000000	200.000000	4	39	mm	200.000000	113	303
Frame#	Time	LSHO			RSHO			LICST			RICST			LASIS			LHEEL			RASIS			LTROC			RTROC			SACR			LTH1			LSK4			LTH2			LTH3			RHM5			LSK2			LTH4			RTH1			LTOE			RTH2			RTH3			RTH4			LLEP			RLEP			LSK1			LSK3			RSK1			LHM5			RSK2			LFT1			RSK3			RSK4			LLME			RLME			RTOE			RHEEL			RFT1			RFT2			LFT2			
		X1	Y1	Z1	X2	Y2	Z2	X3	Y3	Z3	X4	Y4	Z4	X5	Y5	Z5	X6	Y6	Z6	X7	Y7	Z7	X8	Y8	Z8	X9	Y9	Z9	X10	Y10	Z10	X11	Y11	Z11	X12	Y12	Z12	X13	Y13	Z13	X14	Y14	Z14	X15	Y15	Z15	X16	Y16	Z16	X17	Y17	Z17	X18	Y18	Z18	X19	Y19	Z19	X20	Y20	Z20	X21	Y21	Z21	X22	Y22	Z22	X23	Y23	Z23	X24	Y24	Z24	X25	Y25	Z25	X26	Y26	Z26	X27	Y27	Z27	X28	Y28	Z28	X29	Y29	Z29	X30	Y30	Z30	X31	Y31	Z31	X32	Y32	Z32	X33	Y33	Z33	X34	Y34	Z34	X35	Y35	Z35	X36	Y36	Z36	X37	Y37	Z37	X38	Y38	Z38	X39	Y39	Z39	

114	0.565	-399.7289428710938	1404.302856445312	-536.8024291992188	-405.3214111328125	1413.350952148438	-232.8573303222656	-470.5959777832031	968.2763671875	-506.3813781738281	-429.2442626953125	965.3079833984376	-229.0753021240234	-427.8430480957031	917.2911376953124	-487.4630432128906	-838.4217529296875	141.3067474365234	-365.8711242675781	-407.40869140625	922.786865234375	-251.1933135986328	-570.61865234375	858.1204833984375	-511.38427734375	-537.7281494140625	842.84375	-189.6342163085938	-586.8331909179688	978.126708984375	-362.6977233886719	-514.1275634765625	623.46923828125	-516.1593627929688	-706.291259765625	313.8955383300781	-458.0767822265625	-587.844482421875	629.59326171875	-493.5108947753906	-510.8835144042969	526.3265380859375	-490.5452880859375	-627.8556518554688	179.9959411621094	-212.3901214599609	-650.401611328125	392.5833129882812	-480.2973327636719	-588.182861328125	533.25048828125	-472.3011779785156	-326.7842712402344	679.8759765625	-196.1350860595703	-606.8884887695312	62.60069274902344	-425.6304931640625	-398.7766723632812	650.3289794921875	-183.3955688476562	-287.2059936523438	590.0469970703125	-218.6267242431641	-362.9861755371094	556.5631713867188	-200.2853546142578	-563.589111328125	455.9155883789062	-480.7009582519531	-319.3821716308594	506.1338500976562	-203.6615295410156	-580.2684326171875	347.1582641601562	-476.0630798339844	-639.9154663085938	266.1014709472656	-456.0711975097656	-390.6534729003906	415.6377563476562	-211.0918731689453	-681.4195556640625	63.1509895324707	-481.4138488769531	-439.3324584960938	486.7227172851562	-209.5810241699219	-835.8787841796875	109.607421875	-346.7206420898438	-479.5032348632812	364.2736511230469	-227.1569671630859	-518.0269775390625	433.2077026367188	-223.587890625	-774.5726318359375	151.7150115966797	-434.0848999023438	-646.0039672851562	314.3887939453125	-247.4845733642578	-573.9547729492188	118.8442077636719	-271.3847045898438	-698.8013916015625	346.3832397460938	-302.8442993164062	-716.88427734375	314.0809631347656	-330.9732971191406	-724.1289672851562	333.224365234375	-275.7315368652344	-846.4939575195312	114.2445678710938	-399.9627075195312
115	0.57	-377.904541015625	1408.556518554688	-535.723388671875	-388.9993591308594	1417.529052734375	-232.6890106201172	-449.6675415039062	971.1782836914062	-506.3973693847656	-409.4834594726562	968.6209106445312	-229.2239074707031	-407.099853515625	919.88037109375	-487.2301940917969	-833.3348999023438	149.4340057373047	-367.0259399414062	-387.011962890625	926.555908203125	-251.4572143554688	-550.2714233398438	861.6470336914062	-512.1923828125	-517.4473266601562	847.179931640625	-189.4342803955078	-566.3463745117188	981.5716552734376	-363.2962951660156	-500.79443359375	626.509033203125	-516.042724609375	-699.9789428710938	320.2607421875	-458.6647644042969	-574.2581787109375	634.8160400390625	-493.1053161621094	-500.3853759765625	529.9561767578125	-490.3742065429688	-587.7066650390625	172.6639404296875	-212.5568542480469	-643.296630859375	398.3830261230469	-480.7183532714844	-577.0617065429688	538.697509765625	-472.7142944335938	-304.9039001464844	685.9268798828125	-196.36328125	-606.0896606445312	62.09067153930664	-426.311279296875	-376.875732421875	655.14013671875	-184.3567657470703	-263.7254028320312	597.149658203125	-219.5667266845703	-339.1321716308594	562.2586059570312	-201.3765411376953	-555.290283203125	460.5815734863281	-481.0873413085938	-294.717529296875	512.6624755859375	-205.1033172607422	-573.8261108398438	352.1832885742188	-476.641845703125	-634.1011962890625	271.5549926757812	-457.2596130371094	-362.3577880859375	419.2669372558594	-211.8347473144531	-680.2513427734375	64.0224380493164	-482.3316345214844	-414.1270446777344	487.8833923339844	-210.9163818359375	-830.8203735351562	116.7713012695312	-348.2268371582031	-448.7463073730469	363.4545288085938	-227.7423400878906	-490.3646545410156	430.5497131347656	-224.2298431396484	-769.8430786132812	157.4311676025391	-435.2248229980469	-612.8356323242188	305.1976318359375	-248.6949005126953	-530.4110107421875	114.4422073364258	-270.6846618652344	-667.8038330078125	334.6762084960938	-303.8280334472656	-684.9974365234375	303.7099914550781	-329.4095153808594	-690.3682861328125	319.4017333984375	-276.3092956542969	-841.9522094726562	121.8970413208008	-400.8394470214844
116	0.575	-355.8626098632812	1412.936645507812	-534.4771118164062	-371.9617004394531	1421.490112304688	-232.46484375	-428.40478515625	974.1973266601562	-506.2795104980469	-390.1111755371094	972.4263916015624	-229.0326080322266	-386.0577392578125	923.0940551757812	-487.0474548339844	-827.4661865234375	157.2730865478516	-368.9654846191406	-366.6234130859375	930.5305786132812	-251.3874359130859	-529.7799682617188	865.5907592773438	-513.169189453125	-496.7734069824219	851.4481201171875	-189.0750732421875	-545.9745483398438	985.0069580078124	-364.3970947265625	-486.5353698730469	630.3977661132812	-515.57177734375	-692.8373413085938	326.778564453125	-459.8501586914062	-560.0833740234375	640.7284545898438	-493.3257141113281	-488.9245910644531	533.5639038085938	-490.3097534179688	-546.9030151367188	165.4840698242188	-212.245849609375	-635.4378662109375	404.3210754394531	-481.2705078125	-566.0563354492188	544.3978881835938	-472.9474792480469	-283.0610656738281	692.1651611328125	-196.7731170654297	-605.15283203125	61.91881561279297	-426.974853515625	-354.4618530273438	660.293212890625	-185.0828857421875	-240.4796447753906	604.1599731445312	-220.3942260742188	-315.2334594726562	567.755615234375	-202.850341796875	-546.0437622070312	465.5265808105469	-481.1346130371094	-270.1647338867188	518.2809448242188	-206.1044921875	-566.6254272460938	357.4835815429688	-477.283203125	-627.7236328125	277.0135803222656	-458.2168579101562	-334.3864135742188	422.3250122070312	-212.5750579833984	-678.695556640625	64.09430694580078	-482.7112426757812	-389.2589111328125	488.8294677734375	-212.4749298095703	-825.8849487304688	125.3727798461914	-349.3636779785156	-418.1301879882812	361.7908325195312	-229.4080200195312	-462.7769775390625	427.5198669433594	-225.1747283935547	-764.209716796875	163.4316253662109	-436.4402465820312	-579.4324951171875	296.2763977050781	-248.9270172119141	-486.53076171875	110.3447952270508	-270.7669677734375	-635.60205078125	323.15087890625	-303.9895324707031	-651.1282958984375	290.6811828613281	-329.8441772460938	-657.4430541992188	306.5068664550781	-276.7512817382812	-836.9874877929688	129.3988037109375	-402.1211853027344
117	0.58	-334.3182983398438	1417.422607421875	-533.5166625976562	-354.8356018066406	1425.819946289062	-232.1853942871094	-406.9794006347656	977.4556274414062	-506.1495666503906	-369.6824645996094	976.5131225585938	-229.3396606445312	-365.2484436035156	925.7174072265624	-486.3816528320312	-820.7506713867188	165.87353515625	-370.3591613769531	-346.7585754394531	934.4630737304688	-251.7124633789062	-509.1200561523438	869.4921875	-514.0582885742188	-476.2048034667969	856.0213623046875	-188.4588012695312	-525.5956420898438	988.5096435546876	-364.6074523925781	-472.298095703125	634.0574340820312	-515.7140502929688	-685.2855224609375	333.4205932617188	-461.1678466796875	-545.5057373046875	646.18994140625	-493.4762878417969	-477.056396484375	537.3650512695312	-490.7484436035156	-506.3643188476562	158.8069305419922	-212.5823364257812	-627.1494750976562	410.5416870117188	-482.0083312988281	-554.1843872070312	550.6223754882812	-473.5331115722656	-261.5608215332031	698.3193969726562	-197.3772125244141	-603.8384399414062	61.33351898193359	-427.9948425292969	-332.3960876464844	665.3717041015625	-185.7601470947266	-217.8568572998047	610.6576538085938	-221.1349945068359	-292.5360107421875	573.3633422851562	-203.9496612548828	-536.4385375976562	471.0340270996094	-481.9868469238281	-245.9478912353516	524.4921264648438	-207.0820617675781	-558.8823852539062	362.8335266113281	-477.7653198242188	-620.6834716796875	283.2460327148438	-460.0471496582031	-306.7880859375	425.6186828613281	-212.9403381347656	-676.65283203125	65.10719299316406	-483.9783935546875	-364.4761657714844	488.5134582519531	-213.6579284667969	-820.25146484375	134.0672912597656	-350.6798095703125	-387.5513610839844	361.0979309082031	-229.502685546875	-435.4445495605469	424.0845031738281	-226.1181335449219	-758.0205078125	169.9462432861328	-437.9171142578125	-545.4630737304688	289.2421875	-246.8499450683594	-442.8717346191406	106.8208694458008	-270.2528991699219	-603.0419311523438	310.6776123046875	-304.62158203125	-617.033935546875	277.3919982910156	-330.1615295410156	-624.2025756835938	293.397705078125	-276.9917602539062	-834.3933715820312	137.0041046142578	-402.2366333007812
